{"glyphs":{":":{"x_min":0,"x_max":265,"ha":265,"o":"m 56 68 q 56 84 62 98 q 68 112 78 122 q 88 132 102 138 q 116 144 132 144 q 148 144 162 138 q 176 132 186 122 q 196 112 202 98 q 208 84 208 68 q 208 52 202 38 q 196 24 186 14 q 176 4 162 -1 q 148 -7 132 -7 q 116 -7 102 -1 q 88 4 78 14 q 68 24 62 38 q 56 52 56 68 z m 56 424 q 56 440 62 454 q 68 468 78 478 q 88 488 102 494 q 116 500 132 500 q 148 500 162 494 q 176 488 186 478 q 196 468 202 454 q 208 440 208 424 q 208 408 202 395 q 196 381 186 371 q 176 361 162 355 q 148 350 132 350 q 116 350 102 355 q 88 361 78 371 q 68 381 62 395 q 56 408 56 424 z"},"$":{"x_min":0,"x_max":580,"ha":580,"o":"m 232 -4 q 173 4 122 28 q 70 52 34 87 l 72 144 q 78 151 86 156 q 94 160 103 160 q 114 160 126 153 q 139 145 155 134 q 171 124 192 114 q 212 103 240 98 l 259 322 q 224 332 189 346 q 154 359 126 381 q 98 404 82 438 q 64 472 64 522 q 64 560 80 597 q 95 633 124 662 q 153 690 196 708 q 238 727 293 730 l 298 792 q 300 804 308 814 q 318 824 332 824 l 378 824 l 369 725 q 422 716 460 695 q 499 674 528 646 l 498 601 q 490 591 484 586 q 476 581 466 581 q 459 581 449 586 q 438 590 425 597 q 412 604 396 611 q 380 618 360 622 l 343 416 q 379 404 414 391 q 450 378 478 357 q 506 336 524 305 q 541 274 541 226 q 541 180 526 139 q 510 98 480 67 q 450 36 407 16 q 364 -3 308 -7 l 302 -80 q 300 -92 292 -102 q 282 -112 268 -112 l 222 -112 z m 424 208 q 424 226 417 241 q 410 255 398 266 q 386 277 370 285 q 353 293 334 300 l 316 96 q 370 104 397 132 q 424 161 424 208 z m 181 534 q 181 516 188 501 q 194 486 206 475 q 218 464 234 455 q 250 446 268 440 l 284 624 q 256 621 237 613 q 218 604 205 592 q 192 580 187 566 q 181 551 181 534 z"},"?":{"x_min":0,"x_max":420,"ha":420,"o":"m 18 658 q 36 672 56 686 q 76 700 100 710 q 123 720 150 725 q 178 731 210 731 q 254 731 289 719 q 325 707 350 685 q 376 662 390 631 q 404 600 404 560 q 404 522 393 495 q 382 467 365 446 q 348 426 329 411 q 310 396 292 383 q 274 370 262 357 q 249 344 246 328 l 235 255 l 150 255 l 142 336 q 142 339 142 341 q 142 342 142 345 q 142 367 152 383 q 164 400 180 414 q 196 428 216 442 q 234 455 251 471 q 268 486 278 506 q 290 526 290 554 q 290 572 283 586 q 276 600 264 610 q 252 620 235 626 q 218 632 199 632 q 170 632 151 625 q 131 619 117 611 q 104 604 94 597 q 84 591 77 591 q 59 591 51 606 z m 113 68 q 113 84 119 98 q 124 112 135 122 q 145 132 159 138 q 173 144 189 144 q 204 144 218 138 q 232 132 242 122 q 252 112 258 98 q 264 84 264 68 q 264 52 258 38 q 252 24 242 14 q 232 4 218 -1 q 204 -7 189 -7 q 173 -7 159 -1 q 145 4 135 14 q 124 24 119 38 q 113 52 113 68 z"},"<":{"x_min":0,"x_max":580,"ha":580,"o":"m 70 362 l 466 568 l 466 480 q 466 470 460 462 q 456 454 444 448 l 262 355 q 251 349 238 345 q 226 340 211 337 q 226 334 238 329 q 251 325 262 319 l 444 226 q 456 220 460 211 q 466 203 466 193 l 466 105 l 70 312 z"},"'":{"x_min":0,"x_max":238,"ha":238,"o":"m 173 723 l 173 579 l 162 501 q 158 479 149 467 q 140 456 118 456 q 100 456 90 467 q 80 479 76 501 l 66 579 l 66 723 z"},"=":{"x_min":0,"x_max":580,"ha":580,"o":"m 68 294 l 511 294 l 511 202 l 68 202 z m 68 470 l 511 470 l 511 378 l 68 378 z"},"a":{"x_min":0,"x_max":524,"ha":524,"o":"m 468 0 l 412 0 q 395 0 385 5 q 375 10 370 26 l 359 63 q 340 46 321 32 q 302 19 282 10 q 262 1 240 -4 q 217 -8 190 -8 q 157 -8 130 1 q 102 10 82 27 q 62 44 52 70 q 40 96 40 131 q 40 160 56 188 q 71 216 106 239 q 142 262 201 277 q 260 292 348 294 l 348 324 q 348 376 326 400 q 304 425 262 425 q 232 425 212 418 q 192 411 178 402 q 163 394 150 386 q 138 380 123 380 q 110 380 102 386 q 92 392 87 402 l 64 442 q 153 522 278 522 q 323 522 358 508 q 394 493 418 467 q 442 440 455 404 q 468 368 468 324 z m 228 77 q 247 77 263 80 q 279 84 293 91 q 308 98 321 108 q 334 118 348 132 l 348 219 q 294 216 257 210 q 221 203 199 192 q 177 182 168 168 q 158 154 158 138 q 158 105 178 91 q 197 77 228 77 z"},"L":{"x_min":0,"x_max":517,"ha":517,"o":"m 208 111 l 497 111 l 497 0 l 73 0 l 73 723 l 208 723 z"},"3":{"x_min":0,"x_max":580,"ha":580,"o":"m 312 731 q 362 731 403 717 q 443 702 472 677 q 500 652 515 618 q 530 584 530 544 q 530 510 523 484 q 515 458 500 438 q 486 418 464 405 q 443 392 416 382 q 481 362 513 320 q 545 278 545 214 q 545 160 525 119 q 505 78 471 49 q 437 21 392 6 q 348 -8 298 -8 q 243 -8 202 4 q 162 17 132 42 q 102 66 81 102 q 60 137 45 184 l 100 206 q 114 212 128 212 q 141 212 151 206 q 162 201 167 190 q 176 173 187 156 q 198 139 212 126 q 228 112 248 104 q 268 96 296 96 q 328 96 351 106 q 374 116 390 133 q 406 150 414 170 q 422 190 422 210 q 422 236 416 258 q 410 279 393 294 q 376 309 343 318 q 310 326 255 326 l 255 414 q 300 414 330 422 q 360 430 378 445 q 396 459 403 479 q 410 499 410 523 q 410 574 382 601 q 354 627 306 627 q 262 627 232 604 q 204 580 192 544 q 186 525 176 517 q 165 508 148 508 q 140 508 131 510 l 66 522 q 74 574 95 613 q 116 652 149 678 q 181 704 223 718 q 264 731 312 731 z"},";":{"x_min":0,"x_max":265,"ha":265,"o":"m 60 76 q 60 90 65 102 q 70 114 80 124 q 90 133 103 138 q 116 144 132 144 q 152 144 166 137 q 180 130 189 118 q 198 106 203 91 q 208 76 208 59 q 208 35 200 8 q 193 -18 179 -44 q 165 -71 144 -96 q 124 -121 98 -142 l 76 -122 q 67 -115 67 -104 q 67 -100 70 -95 q 72 -90 76 -86 q 82 -80 90 -71 q 98 -62 106 -51 q 114 -40 121 -27 q 128 -14 130 2 q 115 2 102 7 q 89 13 80 23 q 70 33 65 46 q 60 60 60 76 z m 56 424 q 56 440 62 454 q 68 468 78 478 q 88 488 102 494 q 116 500 132 500 q 148 500 162 494 q 176 488 186 478 q 196 468 202 454 q 208 440 208 424 q 208 408 202 395 q 196 381 186 371 q 176 361 162 355 q 148 350 132 350 q 116 350 102 355 q 88 361 78 371 q 68 381 62 395 q 56 408 56 424 z"},"J":{"x_min":0,"x_max":437,"ha":437,"o":"m 364 257 q 364 196 349 147 q 334 98 304 64 q 274 29 230 10 q 186 -8 126 -8 q 100 -8 74 -5 q 48 -2 19 6 l 26 86 q 27 96 34 103 q 42 110 56 110 q 64 110 78 106 q 92 103 112 103 q 141 103 163 111 q 185 120 200 138 q 214 156 222 184 q 230 213 230 254 l 230 723 l 364 723 z"},"V":{"x_min":0,"x_max":710,"ha":710,"o":"m 2 723 l 110 723 q 128 723 139 714 q 150 706 156 692 l 326 252 q 334 230 342 204 q 350 178 356 150 q 368 208 385 252 l 554 692 q 559 704 570 714 q 582 723 599 723 l 708 723 l 416 0 l 294 0 z"},"\"":{"x_min":0,"x_max":422,"ha":422,"o":"m 173 723 l 173 579 l 162 501 q 158 479 149 467 q 140 456 118 456 q 100 456 90 467 q 80 479 76 501 l 66 579 l 66 723 z m 357 723 l 357 579 l 346 501 q 342 479 333 467 q 324 456 302 456 q 284 456 274 467 q 264 479 260 501 l 250 579 l 250 723 z"},"7":{"x_min":0,"x_max":580,"ha":580,"o":"m 548 723 l 548 670 q 548 646 543 631 q 538 616 532 606 l 259 42 q 250 24 235 12 q 220 0 193 0 l 104 0 l 384 552 q 401 586 422 611 l 76 611 q 65 611 56 620 q 48 628 48 640 l 48 723 z"},"S":{"x_min":0,"x_max":536,"ha":536,"o":"m 460 592 q 455 580 448 576 q 440 572 430 572 q 420 572 408 579 q 396 587 378 596 q 362 606 339 614 q 316 622 285 622 q 257 622 236 615 q 216 608 201 596 q 187 584 180 567 q 173 550 173 530 q 173 505 187 488 q 202 471 225 459 q 248 447 278 438 q 308 428 340 417 q 371 406 401 392 q 431 378 454 356 q 478 334 492 303 q 506 272 506 226 q 506 178 490 135 q 473 92 441 60 q 408 28 362 10 q 316 -8 256 -8 q 221 -8 188 -1 q 154 6 123 18 q 92 30 66 48 q 39 66 18 87 l 57 152 q 62 158 70 163 q 78 168 88 168 q 100 168 114 158 q 129 148 149 135 q 168 122 195 112 q 222 102 260 102 q 317 102 348 129 q 380 156 380 208 q 380 236 366 254 q 352 272 328 284 q 304 296 274 305 q 244 314 214 324 q 182 334 152 348 q 122 362 99 384 q 76 406 61 440 q 47 474 47 524 q 47 563 63 600 q 78 638 109 667 q 139 696 183 714 q 227 731 284 731 q 348 731 402 711 q 456 691 494 655 z"},"}":{"x_min":0,"x_max":300,"ha":300,"o":"m 226 205 q 226 182 229 158 q 232 134 236 111 q 240 88 244 64 q 247 40 247 16 q 247 -22 236 -54 q 225 -85 202 -107 q 180 -130 145 -142 q 110 -154 63 -154 l 36 -154 l 36 -100 q 36 -93 39 -88 q 42 -83 46 -80 q 50 -77 55 -76 q 60 -74 63 -74 l 68 -74 q 102 -74 121 -52 q 140 -30 140 8 q 140 36 136 61 q 134 86 130 110 q 127 134 124 156 q 121 180 121 203 q 121 222 126 238 q 132 256 142 270 q 152 284 166 294 q 180 304 198 310 q 180 314 166 325 q 152 336 142 349 q 132 363 126 380 q 121 397 121 416 q 121 440 124 462 q 127 486 130 509 q 134 533 136 558 q 140 584 140 611 q 140 650 121 672 q 102 694 68 694 l 63 694 q 60 694 55 695 q 50 696 46 700 q 42 702 39 707 q 36 712 36 718 l 36 774 l 63 774 q 110 774 145 761 q 180 749 202 726 q 225 704 236 673 q 247 642 247 604 q 247 579 244 555 q 240 532 236 508 q 232 484 229 461 q 226 438 226 414 q 226 384 240 365 q 254 346 286 346 l 286 274 q 254 274 240 255 q 226 236 226 205 z"},"Z":{"x_min":0,"x_max":617,"ha":617,"o":"m 590 723 l 590 674 q 590 650 576 632 l 206 108 l 580 108 l 580 0 l 31 0 l 31 53 q 31 63 34 72 q 38 82 44 90 l 416 616 l 54 616 l 54 723 z"},"x":{"x_min":0,"x_max":540,"ha":540,"o":"m 188 264 l 19 513 l 138 513 q 152 513 158 509 q 164 506 170 497 l 277 326 q 280 334 283 342 q 287 351 292 360 l 379 494 q 385 504 392 508 q 398 513 408 513 l 521 513 l 352 270 l 528 0 l 409 0 q 396 0 387 7 q 379 14 374 23 l 264 202 q 260 184 252 172 l 156 23 q 150 14 142 7 q 134 0 122 0 l 12 0 z"},")":{"x_min":0,"x_max":300,"ha":300,"o":"m 140 314 q 140 416 115 516 q 90 616 44 704 q 38 716 38 726 q 38 736 42 742 q 48 748 54 752 l 110 785 q 146 728 172 671 q 198 614 215 555 q 232 496 239 436 q 247 376 247 314 q 247 251 239 191 q 232 131 215 72 q 198 14 172 -44 q 146 -101 110 -158 l 54 -124 q 48 -120 42 -114 q 38 -108 38 -98 q 38 -94 39 -88 q 40 -82 44 -76 q 90 12 115 111 q 140 210 140 314 z"},"&":{"x_min":0,"x_max":714,"ha":714,"o":"m 332 731 q 376 731 410 718 q 445 704 470 682 q 494 659 509 630 q 523 601 526 570 l 447 554 q 446 553 444 553 q 442 553 440 553 q 432 553 425 558 q 418 562 414 572 q 410 586 403 597 q 396 609 386 618 q 376 626 362 632 q 349 637 332 637 q 310 637 294 630 q 278 622 266 610 q 254 598 248 582 q 242 566 242 548 q 242 532 246 518 q 249 504 256 490 q 263 476 274 462 q 286 447 302 430 l 494 230 q 510 262 520 297 q 530 332 534 368 q 534 380 541 386 q 548 394 559 394 l 636 394 q 636 328 618 268 q 599 208 564 157 l 716 0 l 595 0 q 586 0 578 1 q 571 2 564 5 q 558 8 552 12 q 546 16 540 24 l 490 75 q 442 36 383 14 q 324 -8 256 -8 q 214 -8 174 6 q 134 20 102 48 q 70 74 51 113 q 32 151 32 199 q 32 232 43 263 q 54 293 74 319 q 93 345 120 366 q 146 387 178 402 q 152 440 140 475 q 128 511 128 546 q 128 584 141 618 q 155 652 181 676 q 208 702 246 716 q 284 731 332 731 z m 158 209 q 158 182 167 160 q 176 138 193 122 q 210 107 231 99 q 253 90 278 90 q 322 90 358 104 q 394 118 424 142 l 234 338 q 194 312 176 279 q 158 246 158 209 z"},"_":{"x_min":0,"x_max":394,"ha":394,"o":"m 394 -67 l 394 -147 l 0 -147 l 0 -67 z"},"v":{"x_min":0,"x_max":534,"ha":534,"o":"m 323 0 l 211 0 l 7 513 l 110 513 q 123 513 132 506 q 142 500 145 490 l 244 216 q 252 192 258 169 q 264 146 268 123 q 273 146 279 169 q 284 192 294 216 l 395 490 q 398 500 408 506 q 416 513 429 513 l 526 513 z"},"O":{"x_min":0,"x_max":800,"ha":800,"o":"m 766 362 q 766 282 740 214 q 714 146 666 97 q 618 48 550 20 q 482 -8 400 -8 q 318 -8 251 20 q 183 48 135 97 q 86 146 60 214 q 34 282 34 362 q 34 441 60 509 q 86 576 135 626 q 183 676 251 703 q 318 731 400 731 q 482 731 550 703 q 618 675 666 626 q 714 576 740 509 q 766 441 766 362 z m 628 362 q 628 421 613 468 q 597 516 568 548 q 538 582 496 599 q 454 616 400 616 q 348 616 305 599 q 262 582 233 548 q 203 516 187 468 q 171 421 171 362 q 171 302 187 255 q 203 208 233 175 q 262 142 305 124 q 348 107 400 107 q 454 107 496 124 q 538 142 568 175 q 597 208 613 255 q 628 302 628 362 z"},"(":{"x_min":0,"x_max":300,"ha":300,"o":"m 160 314 q 160 210 185 111 q 210 12 256 -76 q 260 -82 261 -88 q 262 -94 262 -98 q 262 -108 258 -114 q 252 -120 246 -124 l 190 -158 q 154 -101 128 -44 q 102 14 85 72 q 68 131 61 191 q 53 251 53 314 q 53 376 61 436 q 68 496 85 555 q 102 614 128 671 q 154 728 190 785 l 246 752 q 252 748 258 742 q 262 736 262 726 q 262 716 256 704 q 210 616 185 516 q 160 416 160 314 z"},"C":{"x_min":0,"x_max":670,"ha":670,"o":"m 570 170 q 581 170 589 162 l 642 104 q 598 50 534 21 q 470 -8 380 -8 q 299 -8 235 20 q 170 47 125 96 q 80 145 55 213 q 31 281 31 362 q 31 443 58 511 q 85 578 134 628 q 183 676 251 704 q 320 731 402 731 q 482 731 543 705 q 603 680 646 637 l 601 574 q 597 568 591 564 q 584 560 574 560 q 562 560 550 568 q 538 578 520 588 q 501 598 473 608 q 444 616 401 616 q 350 616 307 599 q 264 581 234 548 q 203 515 186 468 q 168 420 168 362 q 168 300 186 253 q 203 206 232 173 q 262 140 302 123 q 342 106 388 106 q 416 106 438 109 q 460 112 479 118 q 498 125 514 135 q 531 146 548 160 q 552 165 558 168 q 564 170 570 170 z"},"W":{"x_min":0,"x_max":1046,"ha":1046,"o":"m 6 723 l 119 723 q 136 723 148 715 q 160 706 164 692 l 287 260 q 292 244 295 225 q 299 206 302 186 q 306 206 311 225 q 316 244 322 260 l 464 692 q 468 704 479 714 q 491 723 508 723 l 548 723 q 565 723 576 715 q 588 706 592 692 l 734 260 q 744 228 752 189 q 756 208 760 226 q 764 244 768 260 l 890 692 q 894 705 906 714 q 918 723 935 723 l 1040 723 l 816 0 l 694 0 l 536 494 q 534 504 530 514 q 527 526 524 538 q 521 526 518 514 q 514 504 512 494 l 352 0 l 230 0 z"},"A":{"x_min":0,"x_max":710,"ha":710,"o":"m 708 0 l 604 0 q 587 0 576 9 q 564 18 560 30 l 506 178 l 206 178 l 152 30 q 148 19 136 10 q 124 0 108 0 l 3 0 l 287 723 l 424 723 z m 240 273 l 471 273 l 383 514 q 377 530 370 551 q 362 573 356 598 q 348 573 342 551 q 335 529 328 512 z"},"f":{"x_min":0,"x_max":350,"ha":350,"o":"m 88 0 l 88 420 l 44 427 q 29 430 20 437 q 12 444 12 458 l 12 508 l 88 508 l 88 546 q 88 590 101 626 q 114 660 139 685 q 164 710 200 722 q 235 736 280 736 q 315 736 346 726 l 343 664 q 342 650 330 646 q 317 642 300 642 q 278 642 261 638 q 244 633 232 621 q 220 610 214 590 q 208 571 208 542 l 208 508 l 341 508 l 341 420 l 212 420 l 212 0 z"},"Q":{"x_min":0,"x_max":800,"ha":800,"o":"m 766 362 q 766 313 756 269 q 746 224 728 186 q 709 148 682 115 q 655 83 620 58 l 804 -142 l 693 -142 q 669 -142 650 -135 q 630 -128 614 -111 l 508 6 q 483 -1 456 -4 q 430 -8 400 -8 q 318 -8 251 20 q 183 48 135 97 q 86 146 60 214 q 34 282 34 362 q 34 441 60 509 q 86 576 135 626 q 183 676 251 703 q 318 731 400 731 q 482 731 550 703 q 618 675 666 626 q 714 576 740 509 q 766 441 766 362 z m 628 362 q 628 421 613 468 q 597 516 568 548 q 538 582 496 599 q 454 616 400 616 q 348 616 305 599 q 262 582 233 548 q 203 516 187 468 q 171 421 171 362 q 171 302 187 255 q 203 208 233 175 q 262 142 305 124 q 348 107 400 107 q 454 107 496 124 q 538 142 568 175 q 597 208 613 255 q 628 302 628 362 z"},"w":{"x_min":0,"x_max":791,"ha":791,"o":"m 4 513 l 102 513 q 116 513 125 506 q 134 500 137 490 l 210 216 q 216 194 220 172 q 224 150 228 129 q 233 150 239 172 q 246 194 252 216 l 338 491 q 340 501 350 508 q 358 514 370 514 l 425 514 q 438 514 448 508 q 456 501 460 491 l 544 211 q 550 190 555 169 q 560 149 566 128 q 569 150 573 172 q 578 193 584 216 l 660 490 q 662 500 672 506 q 682 513 694 513 l 788 513 l 625 0 l 526 0 q 510 0 502 22 l 410 318 q 406 333 402 348 q 398 362 396 377 q 392 362 389 347 q 386 332 381 318 l 288 22 q 280 0 260 0 l 166 0 z"},"-":{"x_min":0,"x_max":359,"ha":359,"o":"m 50 354 l 309 354 l 309 250 l 50 250 z"},"E":{"x_min":0,"x_max":572,"ha":572,"o":"m 529 723 l 529 616 l 208 616 l 208 416 l 461 416 l 461 312 l 208 312 l 208 108 l 529 108 l 529 0 l 73 0 l 73 723 z"},"s":{"x_min":0,"x_max":437,"ha":437,"o":"m 370 413 q 366 405 360 402 q 354 398 346 398 q 337 398 327 404 q 316 408 303 415 q 290 421 272 426 q 255 431 232 431 q 195 431 174 416 q 153 400 153 375 q 153 358 164 347 q 174 336 192 328 q 210 319 232 312 q 255 306 278 298 q 302 290 324 279 q 347 269 365 253 q 382 238 393 216 q 404 194 404 162 q 404 126 390 94 q 377 63 351 40 q 325 18 287 5 q 248 -8 199 -8 q 172 -8 147 -3 q 122 2 99 10 q 76 18 56 30 q 36 42 21 55 l 50 102 q 55 110 62 115 q 70 120 82 120 q 93 120 103 113 q 114 106 127 99 q 140 92 159 85 q 177 78 205 78 q 227 78 243 84 q 258 89 269 98 q 279 106 284 117 q 288 128 288 140 q 288 158 278 170 q 267 182 249 190 q 232 198 209 205 q 186 212 162 220 q 138 228 116 239 q 93 250 75 266 q 58 282 47 306 q 36 330 36 364 q 36 396 48 424 q 61 453 85 474 q 110 496 146 508 q 182 521 230 521 q 282 521 326 504 q 370 486 398 458 z"},">":{"x_min":0,"x_max":580,"ha":580,"o":"m 114 105 l 114 193 q 114 203 120 211 q 124 220 136 226 l 318 319 q 340 330 369 337 q 354 340 342 345 q 329 349 318 355 l 136 448 q 124 454 120 462 q 114 470 114 480 l 114 568 l 510 362 l 510 312 z"},"l":{"x_min":0,"x_max":271,"ha":271,"o":"m 198 743 l 198 0 l 74 0 l 74 743 z"},"8":{"x_min":0,"x_max":580,"ha":580,"o":"m 290 -8 q 234 -8 188 7 q 142 22 108 50 q 76 77 57 116 q 39 155 39 203 q 39 267 70 311 q 102 356 168 377 q 116 399 89 440 q 63 480 63 537 q 63 578 80 614 q 96 649 126 675 q 156 702 198 716 q 240 731 290 731 q 340 731 382 716 q 424 702 454 675 q 484 649 500 614 q 517 578 517 537 q 517 480 490 440 q 464 399 412 377 q 478 356 510 311 q 541 267 541 203 q 541 155 523 116 q 504 77 472 50 q 438 22 392 7 q 346 -8 290 -8 z m 290 88 q 320 88 344 97 q 366 106 382 122 q 398 137 406 158 q 414 180 414 205 q 414 264 381 295 q 348 326 290 326 q 232 326 199 295 q 166 264 166 205 q 166 180 174 158 q 182 137 198 122 q 214 106 236 97 q 260 88 290 88 z m 290 422 q 320 422 340 432 q 361 442 374 457 q 386 473 391 493 q 396 514 396 535 q 396 556 390 574 q 384 592 370 607 q 358 621 338 630 q 318 638 290 638 q 262 638 242 630 q 222 621 209 607 q 196 592 190 574 q 184 556 184 535 q 184 514 189 493 q 194 473 206 457 q 219 442 240 432 q 260 422 290 422 z"},"\\":{"x_min":0,"x_max":390,"ha":390,"o":"m -14 743 l 39 743 q 61 743 77 732 q 94 720 102 700 l 394 -48 l 342 -48 q 322 -48 303 -36 q 284 -24 276 -2 z"},"e":{"x_min":0,"x_max":534,"ha":534,"o":"m 278 521 q 326 521 367 506 q 408 490 438 460 q 467 430 484 387 q 500 344 500 288 q 500 274 499 265 q 498 256 494 251 q 491 246 486 243 q 480 241 472 241 l 154 241 q 160 162 197 125 q 234 88 295 88 q 325 88 347 95 q 368 102 385 110 q 401 119 413 126 q 426 133 437 133 q 444 133 450 130 q 456 127 460 122 l 496 76 q 475 52 450 36 q 424 20 396 10 q 368 0 340 -4 q 311 -8 284 -8 q 230 -8 184 10 q 138 28 104 63 q 70 98 51 149 q 32 200 32 268 q 32 320 48 366 q 66 412 97 447 q 129 481 175 501 q 220 521 278 521 z m 280 432 q 226 432 196 402 q 166 372 157 316 l 389 316 q 389 340 382 361 q 376 382 362 398 q 349 414 328 423 q 308 432 280 432 z"},"b":{"x_min":0,"x_max":570,"ha":570,"o":"m 68 0 l 68 743 l 191 743 l 191 450 q 222 482 260 502 q 298 521 350 521 q 392 521 427 504 q 462 486 487 454 q 512 420 526 372 q 540 324 540 260 q 540 203 524 154 q 508 105 480 69 q 451 33 410 13 q 370 -8 319 -8 q 296 -8 276 -3 q 256 2 240 10 q 224 19 211 31 q 197 44 184 58 l 179 24 q 176 11 169 6 q 162 0 149 0 z m 308 425 q 269 425 242 409 q 214 392 191 363 l 191 133 q 212 107 237 97 q 262 86 290 86 q 318 86 341 97 q 364 108 379 129 q 395 150 404 183 q 412 216 412 260 q 412 306 405 337 q 398 368 384 388 q 370 407 351 416 q 332 425 308 425 z"},"%":{"x_min":0,"x_max":803,"ha":803,"o":"m 364 548 q 364 507 351 474 q 337 441 314 418 q 291 394 260 382 q 230 370 197 370 q 161 370 130 382 q 100 394 78 418 q 56 441 43 474 q 30 507 30 548 q 30 590 43 624 q 56 658 78 682 q 100 705 130 718 q 161 730 197 730 q 233 730 264 718 q 294 705 317 682 q 340 658 352 624 q 364 590 364 548 z m 269 548 q 269 577 264 596 q 258 616 248 628 q 238 640 225 645 q 212 650 197 650 q 182 650 169 645 q 156 640 146 628 q 137 616 132 596 q 126 577 126 548 q 126 520 132 501 q 137 482 146 471 q 156 460 169 454 q 182 450 197 450 q 212 450 225 454 q 238 460 248 471 q 258 482 264 501 q 269 520 269 548 z m 605 704 q 611 711 620 717 q 629 723 645 723 l 734 723 l 198 18 q 192 10 182 5 q 173 0 160 0 l 68 0 z m 772 170 q 772 129 759 96 q 745 63 722 40 q 699 16 668 4 q 638 -9 605 -9 q 569 -9 538 4 q 508 16 486 40 q 464 63 451 96 q 438 129 438 170 q 438 212 451 246 q 464 280 486 304 q 508 327 538 340 q 569 352 605 352 q 641 352 672 340 q 702 327 725 304 q 748 280 760 246 q 772 212 772 170 z m 678 170 q 678 199 672 218 q 666 238 656 250 q 646 262 633 267 q 620 272 605 272 q 590 272 577 267 q 564 262 555 250 q 546 238 540 218 q 534 199 534 170 q 534 142 540 123 q 546 104 555 92 q 564 81 577 76 q 590 71 605 71 q 620 71 633 76 q 646 81 656 92 q 666 104 672 123 q 678 142 678 170 z"},"m":{"x_min":0,"x_max":842,"ha":842,"o":"m 66 0 l 66 513 l 142 513 q 166 513 173 490 l 181 452 q 194 468 209 480 q 224 492 241 502 q 258 510 277 516 q 296 521 319 521 q 368 521 399 495 q 430 468 446 425 q 458 450 476 469 q 494 487 515 498 q 536 510 561 516 q 585 521 610 521 q 652 521 685 508 q 718 495 740 470 q 763 445 775 409 q 786 373 786 326 l 786 0 l 663 0 l 663 326 q 663 376 642 400 q 620 425 578 425 q 560 425 543 418 q 527 412 515 400 q 502 388 496 369 q 488 350 488 326 l 488 0 l 364 0 l 364 326 q 364 378 344 402 q 323 425 282 425 q 256 425 233 412 q 210 398 190 376 l 190 0 z"},"#":{"x_min":0,"x_max":580,"ha":580,"o":"m 416 204 l 377 0 l 320 0 q 306 0 294 12 q 284 24 284 42 q 284 44 284 46 q 284 48 284 51 l 314 204 l 212 204 l 182 45 q 178 21 162 10 q 146 0 126 0 l 72 0 l 110 204 l 52 204 q 36 204 28 212 q 20 220 20 238 q 20 244 21 254 l 28 293 l 122 293 l 148 431 l 42 431 l 51 482 q 54 502 66 511 q 78 520 106 520 l 161 520 l 192 681 q 196 701 210 712 q 225 723 244 723 l 300 723 l 262 520 l 364 520 l 403 723 l 458 723 q 476 723 486 713 q 498 703 498 688 q 498 682 497 680 l 466 520 l 568 520 l 558 468 q 554 450 542 440 q 530 431 504 431 l 454 431 l 428 293 l 499 293 q 515 293 523 285 q 532 278 532 259 q 532 252 530 243 l 524 204 z m 224 293 l 326 293 l 352 431 l 250 431 z"},",":{"x_min":0,"x_max":225,"ha":225,"o":"m 40 76 q 40 90 45 102 q 50 114 60 124 q 70 133 83 138 q 96 144 112 144 q 132 144 146 137 q 160 130 169 118 q 178 106 183 91 q 188 76 188 59 q 188 35 180 8 q 173 -18 159 -44 q 145 -71 124 -96 q 104 -121 78 -142 l 56 -122 q 47 -115 47 -104 q 47 -100 50 -95 q 52 -90 56 -86 q 62 -80 70 -71 q 78 -62 86 -51 q 94 -40 101 -27 q 108 -14 110 2 q 95 2 82 7 q 69 13 60 23 q 50 33 45 46 q 40 60 40 76 z"},"n":{"x_min":0,"x_max":568,"ha":568,"o":"m 66 0 l 66 513 l 142 513 q 166 513 173 490 l 182 450 q 197 466 214 479 q 232 492 251 502 q 270 511 292 516 q 314 521 340 521 q 382 521 414 507 q 447 492 469 467 q 490 441 502 405 q 513 370 513 326 l 513 0 l 390 0 l 390 326 q 390 374 368 399 q 346 425 302 425 q 270 425 242 410 q 214 396 190 371 l 190 0 z"},"h":{"x_min":0,"x_max":568,"ha":568,"o":"m 66 0 l 66 743 l 190 743 l 190 458 q 220 486 256 504 q 292 521 340 521 q 382 521 414 507 q 447 492 469 467 q 490 441 502 405 q 513 370 513 326 l 513 0 l 390 0 l 390 326 q 390 374 368 399 q 346 425 302 425 q 270 425 242 410 q 214 396 190 371 l 190 0 z"},"z":{"x_min":0,"x_max":470,"ha":470,"o":"m 437 462 q 437 449 432 437 q 428 424 421 416 l 177 95 l 430 95 l 430 0 l 34 0 l 34 52 q 34 60 38 72 q 42 84 50 94 l 296 418 l 48 418 l 48 513 l 437 513 z"},"B":{"x_min":0,"x_max":652,"ha":652,"o":"m 73 0 l 73 723 l 322 723 q 394 723 444 710 q 494 696 526 671 q 558 646 574 610 q 588 575 588 530 q 588 505 581 482 q 574 458 558 438 q 542 418 518 402 q 494 385 460 374 q 609 340 609 212 q 609 166 592 128 q 574 88 540 60 q 507 32 458 16 q 409 0 346 0 z m 208 317 l 208 105 l 344 105 q 382 105 407 114 q 432 123 447 138 q 462 153 469 173 q 476 193 476 216 q 476 239 468 258 q 461 276 445 290 q 429 303 404 310 q 379 317 344 317 z m 208 410 l 315 410 q 384 410 419 435 q 454 460 454 514 q 454 571 422 595 q 390 619 322 619 l 208 619 z"},"K":{"x_min":0,"x_max":698,"ha":698,"o":"m 212 420 l 244 420 q 262 420 275 425 q 288 430 296 442 l 496 694 q 508 710 522 717 q 536 723 557 723 l 673 723 l 430 422 q 418 408 408 399 q 397 390 385 384 q 402 378 415 366 q 428 356 440 338 l 692 0 l 572 0 q 548 0 537 7 q 525 14 517 26 l 312 294 q 302 306 290 312 q 278 318 254 318 l 212 318 l 212 0 l 78 0 l 78 724 l 212 724 z"},"R":{"x_min":0,"x_max":655,"ha":655,"o":"m 212 282 l 212 0 l 78 0 l 78 723 l 298 723 q 372 723 425 708 q 478 692 511 665 q 545 638 561 599 q 576 561 576 515 q 576 478 566 446 q 555 414 535 387 q 514 360 485 340 q 455 320 417 308 q 442 294 461 267 l 642 0 l 521 0 q 504 0 491 7 q 479 14 470 27 l 318 258 q 310 272 300 277 q 290 282 270 282 z m 212 379 l 296 379 q 334 379 362 388 q 390 398 409 415 q 427 432 436 454 q 445 478 445 505 q 445 560 409 590 q 372 619 298 619 l 212 619 z"},"T":{"x_min":0,"x_max":595,"ha":595,"o":"m 582 723 l 582 612 l 365 612 l 365 0 l 230 0 l 230 612 l 12 612 l 12 723 z"},"P":{"x_min":0,"x_max":625,"ha":625,"o":"m 212 254 l 212 0 l 78 0 l 78 723 l 313 723 q 386 723 438 706 q 492 689 526 658 q 560 628 577 586 q 594 543 594 492 q 594 440 576 396 q 558 352 524 321 q 488 290 436 272 q 384 254 313 254 z m 212 360 l 313 360 q 350 360 378 369 q 405 378 423 395 q 441 412 450 437 q 459 462 459 492 q 459 522 450 545 q 441 568 423 585 q 405 602 378 610 q 350 619 313 619 l 212 619 z"},"|":{"x_min":0,"x_max":300,"ha":300,"o":"m 102 774 l 198 774 l 198 -168 l 102 -168 z"},"t":{"x_min":0,"x_max":387,"ha":387,"o":"m 234 -8 q 168 -8 132 30 q 96 68 96 134 l 96 420 l 44 420 q 34 420 27 427 q 20 434 20 446 l 20 496 l 102 509 l 128 649 q 130 659 137 664 q 144 670 156 670 l 220 670 l 220 508 l 354 508 l 354 420 l 220 420 l 220 142 q 220 118 232 105 q 244 92 264 92 q 275 92 283 94 q 290 97 296 100 q 302 103 306 106 q 311 108 316 108 q 321 108 324 106 q 328 103 332 98 l 369 38 q 342 15 307 4 q 272 -8 234 -8 z"},"M":{"x_min":0,"x_max":930,"ha":930,"o":"m 436 300 q 444 284 452 267 q 459 250 466 232 q 473 250 480 268 q 488 285 496 301 l 710 702 q 714 709 719 714 q 723 718 728 720 q 734 722 740 722 q 746 723 756 723 l 857 723 l 857 0 l 738 0 l 738 467 q 738 480 739 496 q 740 511 742 527 l 523 117 q 516 103 504 95 q 492 88 476 88 l 457 88 q 441 88 429 95 q 417 103 410 117 l 188 528 q 190 512 191 496 q 192 480 192 467 l 192 0 l 73 0 l 73 723 l 174 723 q 184 723 190 722 q 196 722 202 720 q 207 718 212 714 q 216 709 220 702 l 436 300 z"},"g":{"x_min":0,"x_max":518,"ha":518,"o":"m 244 522 q 276 522 306 515 q 334 508 358 496 l 506 496 l 506 450 q 506 438 500 432 q 494 425 480 422 l 434 414 q 438 401 441 386 q 444 372 444 356 q 444 318 429 287 q 414 256 387 235 q 360 214 323 202 q 286 190 244 190 q 214 190 187 196 q 163 181 163 163 q 163 148 177 140 q 192 133 215 130 q 238 127 268 126 q 297 126 328 123 q 359 120 388 114 q 418 108 441 94 q 464 81 479 58 q 493 34 493 -2 q 493 -36 476 -68 q 460 -100 428 -125 q 396 -150 350 -165 q 304 -180 245 -180 q 186 -180 144 -169 q 100 -158 72 -139 q 44 -120 30 -96 q 16 -72 16 -45 q 16 -9 38 16 q 60 40 99 54 q 80 65 68 82 q 57 100 57 128 q 57 140 61 152 q 65 164 73 176 q 82 188 94 199 q 106 210 124 218 q 84 239 62 274 q 40 309 40 356 q 40 394 55 425 q 70 456 98 477 q 125 499 162 510 q 200 522 244 522 z m 379 -23 q 379 -8 370 2 q 361 11 346 16 q 330 22 309 24 q 288 26 265 28 q 242 29 217 30 q 192 32 170 34 q 148 23 136 7 q 123 -8 123 -29 q 123 -42 130 -54 q 136 -66 151 -74 q 166 -83 190 -88 q 213 -92 247 -92 q 282 -92 306 -87 q 332 -82 348 -73 q 364 -64 372 -51 q 379 -38 379 -23 z m 244 269 q 266 269 284 275 q 300 282 312 292 q 323 304 329 319 q 334 334 334 353 q 334 391 312 413 q 289 436 244 436 q 198 436 175 413 q 152 391 152 353 q 152 335 158 320 q 164 304 175 293 q 186 282 204 275 q 221 269 244 269 z"},"j":{"x_min":0,"x_max":269,"ha":269,"o":"m 198 513 l 198 -18 q 198 -51 189 -80 q 180 -110 161 -132 q 142 -154 110 -167 q 79 -180 34 -180 q 16 -180 2 -178 q -14 -176 -29 -170 l -25 -104 q -24 -94 -17 -91 q -10 -88 8 -88 q 26 -88 39 -85 q 52 -81 60 -73 q 68 -64 71 -51 q 74 -38 74 -18 l 74 513 z m 216 662 q 216 646 210 632 q 203 618 192 608 q 182 598 167 591 q 152 585 136 585 q 120 585 106 591 q 92 598 81 608 q 70 618 64 632 q 58 646 58 662 q 58 679 64 694 q 70 708 81 718 q 92 729 106 735 q 120 742 136 742 q 152 742 167 735 q 182 729 192 718 q 203 708 210 694 q 216 679 216 662 z"},"i":{"x_min":0,"x_max":271,"ha":271,"o":"m 198 513 l 198 0 l 74 0 l 74 513 z m 216 662 q 216 646 210 632 q 203 618 192 608 q 182 598 167 591 q 152 585 136 585 q 120 585 106 591 q 92 598 81 608 q 70 618 64 632 q 58 646 58 662 q 58 679 64 694 q 70 708 81 718 q 92 729 106 735 q 120 742 136 742 q 152 742 167 735 q 182 729 192 718 q 203 708 210 694 q 216 679 216 662 z"},"y":{"x_min":0,"x_max":534,"ha":534,"o":"m 248 -141 q 242 -154 234 -161 q 225 -168 207 -168 l 115 -168 l 211 38 l 4 513 l 112 513 q 126 513 134 506 q 142 499 146 490 l 256 224 q 262 211 266 197 q 270 183 272 169 q 276 184 281 197 q 286 210 292 224 l 394 490 q 398 500 408 506 q 417 513 428 513 l 528 513 z"},"@":{"x_min":0,"x_max":822,"ha":822,"o":"m 583 92 q 549 92 522 108 q 496 124 485 160 q 456 124 422 108 q 390 92 352 92 q 320 92 297 104 q 274 114 258 134 q 242 153 234 179 q 226 206 226 236 q 226 265 234 294 q 241 324 256 351 q 270 378 292 402 q 314 426 343 443 q 372 461 409 471 q 446 482 490 482 q 528 482 556 476 q 584 470 609 458 l 561 273 q 553 241 553 220 q 553 204 557 194 q 560 184 567 178 q 573 172 582 170 q 591 168 602 168 q 622 168 641 181 q 660 194 674 218 q 688 242 696 276 q 704 308 704 348 q 704 412 684 462 q 664 512 628 545 q 592 578 541 595 q 490 612 430 612 q 365 612 309 587 q 252 562 211 519 q 170 476 147 418 q 124 359 124 292 q 124 210 149 147 q 174 85 219 43 q 264 2 324 -20 q 384 -40 454 -40 q 492 -40 526 -36 q 560 -32 588 -25 q 616 -18 638 -8 q 662 1 680 12 q 690 17 696 17 q 711 17 717 1 l 734 -44 q 682 -78 612 -99 q 543 -120 454 -120 q 364 -120 286 -92 q 210 -64 153 -10 q 97 43 65 120 q 34 196 34 292 q 34 345 47 396 q 61 446 86 490 q 112 534 148 572 q 184 608 228 635 q 272 662 323 676 q 374 691 430 691 q 502 691 567 667 q 632 644 682 599 q 732 555 762 491 q 792 428 792 348 q 792 294 777 247 q 761 200 733 166 q 704 132 666 112 q 628 92 583 92 z m 376 172 q 389 172 402 176 q 416 180 428 190 q 440 200 450 218 q 460 234 466 260 l 502 401 q 486 404 470 404 q 438 404 412 390 q 384 377 365 354 q 345 331 334 301 q 322 272 322 240 q 322 208 336 190 q 350 172 376 172 z"},".":{"x_min":0,"x_max":225,"ha":225,"o":"m 36 68 q 36 84 42 98 q 48 112 58 122 q 68 132 82 138 q 96 144 112 144 q 128 144 142 138 q 156 132 166 122 q 176 112 182 98 q 188 84 188 68 q 188 52 182 38 q 176 24 166 14 q 156 4 142 -1 q 128 -7 112 -7 q 96 -7 82 -1 q 68 4 58 14 q 48 24 42 38 q 36 52 36 68 z"},"p":{"x_min":0,"x_max":566,"ha":566,"o":"m 66 -168 l 66 513 l 142 513 q 154 513 162 508 q 170 502 173 490 l 183 443 q 214 478 254 500 q 294 522 348 522 q 390 522 425 505 q 460 488 485 454 q 510 421 524 372 q 538 324 538 260 q 538 203 522 154 q 507 105 478 69 q 450 33 409 13 q 368 -8 318 -8 q 274 -8 244 6 q 214 19 190 42 l 190 -168 z m 306 425 q 268 425 240 409 q 213 392 190 363 l 190 133 q 210 107 235 97 q 260 86 288 86 q 316 86 339 97 q 362 108 378 129 q 394 150 402 183 q 410 216 410 260 q 410 306 403 337 q 396 368 382 388 q 369 407 350 416 q 330 425 306 425 z"},"X":{"x_min":0,"x_max":679,"ha":679,"o":"m 246 372 l 16 723 l 150 723 q 164 723 170 719 q 176 716 182 707 l 346 442 q 348 448 352 454 q 354 460 358 467 l 509 704 q 520 723 538 723 l 666 723 l 434 378 l 673 0 l 538 0 q 525 0 517 7 q 508 14 503 23 l 336 300 q 334 294 331 289 q 328 284 326 279 l 166 23 q 160 14 152 7 q 144 0 132 0 l 6 0 z"},"*":{"x_min":0,"x_max":400,"ha":400,"o":"m 170 418 l 170 510 q 170 520 171 530 q 172 539 176 548 q 170 540 162 535 q 155 530 146 524 l 68 478 l 38 528 l 118 574 q 126 580 135 583 q 144 586 154 588 q 144 589 135 593 q 126 597 118 602 l 38 649 l 67 699 l 146 652 q 155 646 163 641 q 170 635 176 628 q 172 636 171 646 q 170 656 170 666 l 170 758 l 229 758 l 229 666 q 229 656 228 646 q 226 636 223 628 q 228 635 236 641 q 244 646 252 652 l 332 698 l 361 648 l 282 602 q 272 597 264 593 q 255 590 246 588 q 262 585 282 574 l 361 528 l 332 478 l 252 524 q 244 530 236 535 q 228 540 222 548 q 229 532 229 510 l 229 418 z"},"Y":{"x_min":0,"x_max":654,"ha":654,"o":"m 394 281 l 394 0 l 260 0 l 260 281 l -4 723 l 115 723 q 132 723 143 714 q 153 706 160 693 l 292 452 q 304 430 312 411 q 321 392 328 373 q 334 392 343 411 q 351 430 362 452 l 494 693 q 500 704 510 714 q 522 723 538 723 l 658 723 z"},"c":{"x_min":0,"x_max":477,"ha":477,"o":"m 426 404 q 421 398 416 394 q 410 390 400 390 q 391 390 382 395 q 373 401 360 408 q 348 416 331 421 q 314 427 288 427 q 256 427 231 415 q 206 404 190 382 q 174 360 166 328 q 158 297 158 258 q 158 216 167 184 q 176 152 192 131 q 208 109 232 98 q 256 86 285 86 q 314 86 333 94 q 351 101 364 110 q 376 118 385 126 q 394 133 406 133 q 421 133 428 122 l 464 76 q 444 52 420 36 q 396 20 370 10 q 344 0 316 -4 q 289 -8 262 -8 q 214 -8 172 10 q 130 28 99 62 q 68 96 50 145 q 32 194 32 258 q 32 314 48 362 q 64 410 96 446 q 127 481 174 501 q 220 521 280 521 q 338 521 381 502 q 424 484 459 450 z"},"!":{"x_min":0,"x_max":360,"ha":360,"o":"m 240 723 l 240 437 q 240 392 236 348 q 231 304 224 255 l 140 255 q 132 304 128 348 q 124 392 124 437 l 124 723 z m 104 68 q 104 84 110 98 q 116 112 126 122 q 136 132 150 138 q 164 144 180 144 q 196 144 210 138 q 224 132 234 122 q 244 112 250 98 q 256 84 256 68 q 256 52 250 38 q 244 24 234 14 q 224 4 210 -1 q 196 -7 180 -7 q 164 -7 150 -1 q 136 4 126 14 q 116 24 110 38 q 104 52 104 68 z"},"/":{"x_min":0,"x_max":387,"ha":387,"o":"m 109 -2 q 104 -13 98 -22 q 90 -30 82 -36 q 72 -42 62 -44 q 52 -48 43 -48 l -9 -48 l 283 700 q 292 720 308 732 q 324 743 346 743 l 398 743 z"},"[":{"x_min":0,"x_max":300,"ha":300,"o":"m 58 -154 l 58 774 l 262 774 l 262 725 q 262 712 253 703 q 244 694 230 694 l 160 694 l 160 -74 l 230 -74 q 244 -74 253 -83 q 262 -92 262 -106 l 262 -154 z"},"6":{"x_min":0,"x_max":580,"ha":580,"o":"m 335 452 q 376 452 415 438 q 454 424 483 397 q 512 370 530 330 q 548 289 548 235 q 548 184 530 140 q 512 96 478 63 q 444 30 397 11 q 350 -8 293 -8 q 235 -8 189 10 q 143 29 110 62 q 78 96 61 142 q 44 189 44 246 q 44 297 64 351 q 85 404 128 462 l 301 694 q 310 706 327 714 q 344 723 367 723 l 477 723 l 262 460 q 256 452 249 444 q 243 437 237 429 q 258 440 282 446 q 306 452 335 452 z m 162 227 q 162 197 170 172 q 178 148 195 130 q 211 112 235 103 q 259 93 290 93 q 320 93 345 103 q 370 113 387 131 q 405 149 415 173 q 425 198 425 226 q 425 257 416 282 q 406 306 388 324 q 371 341 346 350 q 322 359 292 359 q 263 359 239 349 q 215 339 198 321 q 180 304 171 279 q 162 255 162 227 z"},"r":{"x_min":0,"x_max":408,"ha":408,"o":"m 66 0 l 66 513 l 138 513 q 158 513 165 506 q 172 499 175 482 l 182 420 q 210 468 247 495 q 284 522 330 522 q 368 522 393 505 l 377 412 q 376 404 370 400 q 366 396 357 396 q 350 396 336 400 q 324 403 302 403 q 264 403 236 382 q 208 360 190 320 l 190 0 z"},"2":{"x_min":0,"x_max":580,"ha":580,"o":"m 301 731 q 351 731 392 716 q 434 702 464 674 q 493 648 510 610 q 526 572 526 525 q 526 485 514 451 q 502 417 483 386 q 463 355 436 326 q 410 297 381 267 l 218 100 q 242 108 265 111 q 288 115 309 115 l 494 115 q 514 115 526 104 q 538 92 538 74 l 538 0 l 42 0 l 42 41 q 42 54 47 67 q 52 80 64 92 l 284 312 q 311 340 333 366 q 354 391 369 416 q 384 441 392 467 q 400 492 400 521 q 400 547 392 567 q 384 586 370 600 q 356 614 337 620 q 318 627 294 627 q 250 627 221 604 q 192 582 180 544 q 175 525 164 517 q 153 508 136 508 q 128 508 120 510 l 54 522 q 62 574 84 613 q 105 652 137 678 q 170 704 211 718 q 253 731 301 731 z"},"{":{"x_min":0,"x_max":300,"ha":300,"o":"m 74 205 q 74 236 60 255 q 46 274 14 274 l 14 346 q 46 346 60 365 q 74 384 74 414 q 74 438 71 461 q 68 484 64 508 q 60 532 56 555 q 53 579 53 604 q 53 642 64 673 q 75 704 98 726 q 120 749 155 761 q 190 774 237 774 l 264 774 l 264 718 q 264 712 261 707 q 258 702 254 700 q 250 696 245 695 q 240 694 237 694 l 232 694 q 198 694 179 672 q 160 650 160 611 q 160 584 164 558 q 166 533 170 509 q 173 486 176 462 q 179 440 179 416 q 179 397 174 380 q 168 363 158 349 q 148 336 134 325 q 120 314 102 310 q 120 304 134 294 q 148 284 158 270 q 168 256 174 238 q 179 222 179 203 q 179 180 176 156 q 173 134 170 110 q 166 86 164 61 q 160 36 160 8 q 160 -30 179 -52 q 198 -74 232 -74 l 237 -74 q 240 -74 245 -76 q 250 -77 254 -80 q 258 -83 261 -88 q 264 -93 264 -100 l 264 -154 l 237 -154 q 190 -154 155 -142 q 120 -130 98 -107 q 75 -85 64 -54 q 53 -22 53 16 q 53 40 56 64 q 60 88 64 111 q 68 134 71 158 q 74 182 74 205 z"},"9":{"x_min":0,"x_max":580,"ha":580,"o":"m 265 288 q 228 288 192 302 q 156 314 127 341 q 99 367 82 406 q 65 444 65 496 q 65 545 83 588 q 101 630 134 662 q 166 694 212 712 q 257 731 312 731 q 368 731 412 714 q 456 696 487 664 q 518 633 535 589 q 552 545 552 492 q 552 459 546 429 q 540 399 530 371 q 519 344 504 317 q 489 291 470 264 l 305 28 q 296 16 280 8 q 263 0 242 0 l 128 0 l 352 280 q 361 291 368 301 q 376 311 383 321 q 358 305 328 297 q 298 288 265 288 z m 434 505 q 434 534 424 558 q 416 581 399 597 q 382 613 360 622 q 337 630 310 630 q 282 630 260 621 q 237 612 221 595 q 206 578 197 556 q 188 533 188 506 q 188 446 220 414 q 251 382 308 382 q 338 382 362 392 q 385 401 401 418 q 417 434 425 456 q 434 479 434 505 z"}," ":{"x_min":0,"x_max":193,"ha":193,"o":""},"I":{"x_min":0,"x_max":314,"ha":314,"o":"m 224 0 l 90 0 l 90 723 l 224 723 z"},"H":{"x_min":0,"x_max":756,"ha":756,"o":"m 683 0 l 548 0 l 548 316 l 208 316 l 208 0 l 73 0 l 73 723 l 208 723 l 208 412 l 548 412 l 548 723 l 683 723 z"},"4":{"x_min":0,"x_max":580,"ha":580,"o":"m 471 272 l 562 272 l 562 201 q 562 191 556 184 q 549 176 536 176 l 471 176 l 471 0 l 363 0 l 363 176 l 58 176 q 46 176 36 184 q 26 192 24 204 l 12 266 l 354 724 l 471 724 z m 363 509 q 363 525 364 544 q 365 562 368 582 l 143 272 l 363 272 z"},"~":{"x_min":0,"x_max":580,"ha":580,"o":"m 372 324 q 400 324 416 342 q 432 360 432 392 l 531 392 q 531 354 521 323 q 510 292 491 269 q 472 247 444 235 q 416 223 380 223 q 354 223 329 230 q 305 237 283 245 q 262 254 242 260 q 224 268 208 268 q 180 268 164 250 q 148 232 148 199 l 49 199 q 49 238 59 269 q 70 300 89 322 q 108 344 136 356 q 164 368 200 368 q 226 368 251 362 q 275 354 297 346 q 318 338 338 331 q 356 324 372 324 z"},"D":{"x_min":0,"x_max":748,"ha":748,"o":"m 715 362 q 715 282 688 216 q 662 149 614 101 q 566 53 498 26 q 431 0 349 0 l 73 0 l 73 723 l 349 723 q 431 723 498 696 q 566 670 614 622 q 662 574 688 508 q 715 441 715 362 z m 578 362 q 578 421 562 468 q 546 516 516 548 q 486 581 444 598 q 402 616 349 616 l 208 616 l 208 107 l 349 107 q 402 107 444 124 q 486 142 516 175 q 546 208 562 255 q 578 302 578 362 z"},"^":{"x_min":0,"x_max":580,"ha":580,"o":"m 514 388 l 424 388 q 412 388 405 394 q 398 400 392 409 l 313 554 q 306 568 299 580 q 293 592 289 606 q 285 592 280 580 q 274 567 266 554 l 188 409 q 184 400 176 394 q 169 388 156 388 l 61 388 l 248 723 l 328 723 z"},"0":{"x_min":0,"x_max":580,"ha":580,"o":"m 555 362 q 555 267 535 197 q 514 128 479 82 q 443 36 394 14 q 346 -8 289 -8 q 232 -8 184 14 q 136 36 100 82 q 65 128 45 197 q 25 267 25 362 q 25 456 45 526 q 65 596 100 641 q 136 686 184 709 q 232 731 289 731 q 346 731 394 709 q 443 686 479 641 q 514 596 535 526 q 555 456 555 362 z m 428 362 q 428 440 416 492 q 404 543 385 574 q 366 604 341 616 q 316 628 289 628 q 262 628 238 616 q 213 604 194 574 q 175 543 164 492 q 152 440 152 362 q 152 283 164 232 q 175 180 194 150 q 213 119 238 107 q 262 94 289 94 q 316 94 341 107 q 366 119 385 150 q 404 180 416 232 q 428 283 428 362 z"},"F":{"x_min":0,"x_max":562,"ha":562,"o":"m 529 723 l 529 616 l 208 616 l 208 402 l 479 402 l 479 294 l 208 294 l 208 0 l 73 0 l 73 723 z"},"`":{"x_min":0,"x_max":319,"ha":319,"o":"m 115 731 q 136 731 145 724 q 155 718 162 704 l 234 583 l 164 583 q 150 583 141 587 q 132 590 123 600 l 0 731 z"},"k":{"x_min":0,"x_max":552,"ha":552,"o":"m 191 743 l 191 318 l 214 318 q 226 318 234 321 q 240 324 248 334 l 376 492 q 384 502 394 507 q 404 513 419 513 l 532 513 l 372 322 q 364 312 355 303 q 346 294 336 288 q 346 280 354 270 q 362 260 370 249 l 541 0 l 430 0 q 415 0 405 5 q 395 10 387 22 l 256 216 q 249 228 242 232 q 234 235 219 235 l 191 235 l 191 0 l 68 0 l 68 743 z"},"u":{"x_min":0,"x_max":568,"ha":568,"o":"m 179 513 l 179 187 q 179 140 201 114 q 222 88 266 88 q 298 88 326 103 q 354 117 379 142 l 379 513 l 502 513 l 502 0 l 427 0 q 403 0 396 22 l 387 64 q 371 48 354 34 q 337 21 318 12 q 298 2 276 -3 q 254 -8 228 -8 q 186 -8 154 6 q 122 20 100 46 q 78 72 67 108 q 56 144 56 187 l 56 513 z"},"]":{"x_min":0,"x_max":300,"ha":300,"o":"m 38 -154 l 38 -106 q 38 -92 47 -83 q 56 -74 70 -74 l 140 -74 l 140 694 l 70 694 q 56 694 47 703 q 38 712 38 725 l 38 774 l 242 774 l 242 -154 z"},"U":{"x_min":0,"x_max":728,"ha":728,"o":"m 364 108 q 403 108 434 122 q 464 134 486 158 q 507 182 518 215 q 530 248 530 290 l 530 723 l 664 723 l 664 290 q 664 226 643 171 q 622 116 584 76 q 544 36 489 14 q 434 -8 364 -8 q 294 -8 239 14 q 184 36 145 76 q 106 116 85 171 q 64 226 64 290 l 64 723 l 199 723 l 199 290 q 199 249 210 216 q 222 182 242 158 q 264 134 294 122 q 325 108 364 108 z"},"o":{"x_min":0,"x_max":568,"ha":568,"o":"m 285 521 q 342 521 389 502 q 436 484 469 450 q 502 416 520 367 q 538 318 538 258 q 538 196 520 148 q 502 98 469 64 q 436 30 389 11 q 342 -8 285 -8 q 228 -8 180 11 q 134 30 100 64 q 67 98 49 148 q 30 196 30 258 q 30 318 49 367 q 67 416 100 450 q 134 484 180 502 q 228 521 285 521 z m 285 88 q 349 88 380 130 q 410 174 410 256 q 410 340 380 383 q 349 426 285 426 q 220 426 189 383 q 158 339 158 256 q 158 174 189 131 q 220 88 285 88 z"},"N":{"x_min":0,"x_max":756,"ha":756,"o":"m 144 723 q 152 723 158 722 q 164 722 169 719 q 174 717 178 713 q 183 708 188 702 l 568 218 q 566 236 565 252 q 564 269 564 284 l 564 723 l 683 723 l 683 0 l 614 0 q 598 0 587 5 q 576 10 566 23 l 188 504 q 190 488 191 473 q 192 457 192 444 l 192 0 l 73 0 l 73 723 l 144 723 z"},"+":{"x_min":0,"x_max":580,"ha":580,"o":"m 339 586 l 339 382 l 534 382 l 534 290 l 339 290 l 339 84 l 239 84 l 239 290 l 46 290 l 46 382 l 239 382 l 239 586 z"},"G":{"x_min":0,"x_max":723,"ha":723,"o":"m 405 99 q 450 99 484 107 q 518 116 548 130 l 548 262 l 458 262 q 445 262 438 269 q 430 276 430 286 l 430 362 l 670 362 l 670 70 q 643 50 613 35 q 584 20 550 11 q 516 2 478 -3 q 439 -8 394 -8 q 316 -8 249 20 q 182 47 134 96 q 86 145 58 213 q 31 281 31 362 q 31 443 58 511 q 84 579 133 628 q 182 677 251 704 q 320 731 407 731 q 496 731 560 705 q 625 678 670 636 l 631 576 q 620 557 600 557 q 588 557 576 565 q 560 574 543 584 q 526 594 506 600 q 486 608 461 612 q 436 616 402 616 q 349 616 306 598 q 262 580 232 547 q 202 514 185 466 q 168 420 168 362 q 168 299 186 250 q 204 202 235 168 q 266 134 310 117 q 354 99 405 99 z"},"q":{"x_min":0,"x_max":570,"ha":570,"o":"m 502 513 l 502 -168 l 379 -168 l 379 64 q 364 48 346 35 q 329 22 310 12 q 290 3 268 -2 q 246 -8 220 -8 q 178 -8 144 10 q 108 28 83 61 q 58 94 44 143 q 30 192 30 255 q 30 312 46 361 q 62 410 90 446 q 120 482 160 502 q 200 522 251 522 q 275 522 295 518 q 314 514 331 506 q 348 498 362 487 q 376 476 389 462 l 396 490 q 398 502 406 508 q 415 513 427 513 z m 262 90 q 301 90 328 106 q 355 122 379 152 l 379 382 q 358 408 333 418 q 308 428 280 428 q 252 428 229 418 q 206 408 191 386 q 175 365 166 332 q 158 300 158 255 q 158 210 165 179 q 172 148 186 128 q 200 108 219 99 q 238 90 262 90 z"},"d":{"x_min":0,"x_max":570,"ha":570,"o":"m 427 0 q 403 0 396 22 l 386 72 q 370 54 352 40 q 334 25 314 14 q 294 4 271 -2 q 248 -8 220 -8 q 178 -8 144 10 q 108 28 83 61 q 58 94 44 143 q 30 192 30 255 q 30 312 46 361 q 62 410 90 446 q 120 482 160 502 q 200 522 251 522 q 294 522 324 509 q 355 495 379 472 l 379 743 l 502 743 l 502 0 z m 262 90 q 301 90 328 106 q 355 122 379 152 l 379 382 q 358 408 333 418 q 308 428 280 428 q 252 428 229 418 q 206 408 191 386 q 175 365 166 332 q 158 300 158 255 q 158 210 165 179 q 172 148 186 128 q 200 108 219 99 q 238 90 262 90 z"},"1":{"x_min":0,"x_max":580,"ha":580,"o":"m 134 92 l 281 92 l 281 514 q 281 538 282 566 l 178 478 q 172 473 165 471 q 158 469 152 469 q 142 469 134 473 q 126 478 122 483 l 82 536 l 303 724 l 404 724 l 404 92 l 534 92 l 534 0 l 134 0 z"},"5":{"x_min":0,"x_max":580,"ha":580,"o":"m 494 670 q 494 644 478 628 q 461 611 422 611 l 223 611 l 197 460 q 246 470 286 470 q 344 470 387 453 q 430 436 460 406 q 489 376 504 336 q 519 296 519 249 q 519 192 499 144 q 478 96 442 63 q 406 29 357 10 q 308 -8 250 -8 q 216 -8 186 -1 q 155 6 128 18 q 102 30 79 45 q 56 60 38 77 l 76 130 q 88 146 108 146 q 120 146 133 138 q 146 130 163 121 q 180 112 202 104 q 225 96 257 96 q 291 96 317 106 q 343 118 360 137 q 378 157 386 184 q 395 212 395 244 q 395 302 361 336 q 326 369 260 369 q 208 369 154 350 l 78 372 l 138 723 l 494 723 z"}}}
